<mxfile host="app.diagrams.net" modified="2023-12-12T08:23:16.907Z" agent="Mozilla/5.0 (Windows NT 10.0; Win64; x64) AppleWebKit/537.36 (KHTML, like Gecko) Chrome/120.0.0.0 Safari/537.36 Edg/120.0.0.0" etag="KkwyoSBsZ_TMGUQAJTQ4" version="22.1.7" type="device">
  <diagram name="1 oldal" id="myJMkdNbuJBDaG0NU8WV">
    <mxGraphModel dx="2656" dy="1704" grid="1" gridSize="10" guides="1" tooltips="1" connect="1" arrows="1" fold="1" page="1" pageScale="1" pageWidth="827" pageHeight="1169" math="0" shadow="0">
      <root>
        <mxCell id="Xh-Kn0di37GIqZYWOdox-0" />
        <mxCell id="Xh-Kn0di37GIqZYWOdox-1" parent="Xh-Kn0di37GIqZYWOdox-0" />
        <mxCell id="Xh-Kn0di37GIqZYWOdox-28" value="név" style="ellipse;whiteSpace=wrap;html=1;align=center;" parent="Xh-Kn0di37GIqZYWOdox-1" vertex="1">
          <mxGeometry x="420" y="720" width="120" height="40" as="geometry" />
        </mxCell>
        <mxCell id="Xh-Kn0di37GIqZYWOdox-30" value="elérhető" style="ellipse;whiteSpace=wrap;html=1;align=center;" parent="Xh-Kn0di37GIqZYWOdox-1" vertex="1">
          <mxGeometry x="740" y="720" width="120" height="40" as="geometry" />
        </mxCell>
        <mxCell id="Xh-Kn0di37GIqZYWOdox-31" value="típus" style="ellipse;whiteSpace=wrap;html=1;align=center;" parent="Xh-Kn0di37GIqZYWOdox-1" vertex="1">
          <mxGeometry x="900" y="720" width="120" height="40" as="geometry" />
        </mxCell>
        <mxCell id="Xh-Kn0di37GIqZYWOdox-32" value="" style="endArrow=none;html=1;rounded=0;exitX=0.5;exitY=0;exitDx=0;exitDy=0;entryX=0.5;entryY=1;entryDx=0;entryDy=0;" parent="Xh-Kn0di37GIqZYWOdox-1" source="Xh-Kn0di37GIqZYWOdox-28" target="aaN7hWeITXNE_rKxyTwj-9" edge="1">
          <mxGeometry width="50" height="50" relative="1" as="geometry">
            <mxPoint x="600" y="710" as="sourcePoint" />
            <mxPoint x="410" y="630" as="targetPoint" />
          </mxGeometry>
        </mxCell>
        <mxCell id="Xh-Kn0di37GIqZYWOdox-33" value="" style="endArrow=none;html=1;rounded=0;exitX=0.5;exitY=0;exitDx=0;exitDy=0;entryX=0.5;entryY=1;entryDx=0;entryDy=0;" parent="Xh-Kn0di37GIqZYWOdox-1" source="Xh-Kn0di37GIqZYWOdox-29" target="aaN7hWeITXNE_rKxyTwj-9" edge="1">
          <mxGeometry width="50" height="50" relative="1" as="geometry">
            <mxPoint x="600" y="710" as="sourcePoint" />
            <mxPoint x="410" y="630" as="targetPoint" />
          </mxGeometry>
        </mxCell>
        <mxCell id="Xh-Kn0di37GIqZYWOdox-34" value="" style="endArrow=none;html=1;rounded=0;exitX=0.5;exitY=0;exitDx=0;exitDy=0;entryX=0.5;entryY=1;entryDx=0;entryDy=0;" parent="Xh-Kn0di37GIqZYWOdox-1" source="Xh-Kn0di37GIqZYWOdox-30" target="aaN7hWeITXNE_rKxyTwj-9" edge="1">
          <mxGeometry width="50" height="50" relative="1" as="geometry">
            <mxPoint x="600" y="710" as="sourcePoint" />
            <mxPoint x="410" y="630" as="targetPoint" />
          </mxGeometry>
        </mxCell>
        <mxCell id="Xh-Kn0di37GIqZYWOdox-35" value="" style="endArrow=none;html=1;rounded=0;exitX=0.5;exitY=0;exitDx=0;exitDy=0;entryX=0.5;entryY=1;entryDx=0;entryDy=0;" parent="Xh-Kn0di37GIqZYWOdox-1" source="Xh-Kn0di37GIqZYWOdox-29" target="aaN7hWeITXNE_rKxyTwj-9" edge="1">
          <mxGeometry width="50" height="50" relative="1" as="geometry">
            <mxPoint x="600" y="710" as="sourcePoint" />
            <mxPoint x="410" y="630" as="targetPoint" />
          </mxGeometry>
        </mxCell>
        <mxCell id="Xh-Kn0di37GIqZYWOdox-36" value="cím" style="ellipse;whiteSpace=wrap;html=1;align=center;" parent="Xh-Kn0di37GIqZYWOdox-1" vertex="1">
          <mxGeometry x="-460" y="720" width="120" height="40" as="geometry" />
        </mxCell>
        <mxCell id="Xh-Kn0di37GIqZYWOdox-37" value="elérhetőség" style="ellipse;whiteSpace=wrap;html=1;align=center;" parent="Xh-Kn0di37GIqZYWOdox-1" vertex="1">
          <mxGeometry x="-140" y="720" width="120" height="40" as="geometry" />
        </mxCell>
        <mxCell id="Xh-Kn0di37GIqZYWOdox-38" value="" style="endArrow=none;html=1;rounded=0;exitX=0.5;exitY=0;exitDx=0;exitDy=0;entryX=0.5;entryY=1;entryDx=0;entryDy=0;" parent="Xh-Kn0di37GIqZYWOdox-1" source="Xh-Kn0di37GIqZYWOdox-36" target="aaN7hWeITXNE_rKxyTwj-4" edge="1">
          <mxGeometry width="50" height="50" relative="1" as="geometry">
            <mxPoint x="-700" y="710" as="sourcePoint" />
            <mxPoint x="-640.0000000000005" y="630" as="targetPoint" />
          </mxGeometry>
        </mxCell>
        <mxCell id="Xh-Kn0di37GIqZYWOdox-39" value="" style="endArrow=none;html=1;rounded=0;exitX=0.5;exitY=0;exitDx=0;exitDy=0;entryX=0.5;entryY=1;entryDx=0;entryDy=0;" parent="Xh-Kn0di37GIqZYWOdox-1" source="Xh-Kn0di37GIqZYWOdox-37" target="aaN7hWeITXNE_rKxyTwj-4" edge="1">
          <mxGeometry width="50" height="50" relative="1" as="geometry">
            <mxPoint x="-700" y="710" as="sourcePoint" />
            <mxPoint x="-640.0000000000005" y="630" as="targetPoint" />
          </mxGeometry>
        </mxCell>
        <mxCell id="Xh-Kn0di37GIqZYWOdox-40" value="rendelés ideje" style="ellipse;whiteSpace=wrap;html=1;align=center;" parent="Xh-Kn0di37GIqZYWOdox-1" vertex="1">
          <mxGeometry x="-1180" y="720" width="119" height="40" as="geometry" />
        </mxCell>
        <mxCell id="Xh-Kn0di37GIqZYWOdox-41" value="megjegyzés" style="ellipse;whiteSpace=wrap;html=1;align=center;" parent="Xh-Kn0di37GIqZYWOdox-1" vertex="1">
          <mxGeometry x="-1340" y="720" width="120" height="40" as="geometry" />
        </mxCell>
        <mxCell id="Xh-Kn0di37GIqZYWOdox-44" value="" style="endArrow=none;html=1;rounded=0;exitX=0.5;exitY=0;exitDx=0;exitDy=0;entryX=0.5;entryY=1;entryDx=0;entryDy=0;" parent="Xh-Kn0di37GIqZYWOdox-1" source="Xh-Kn0di37GIqZYWOdox-40" target="M4JssvtR45Zc9jd6a05l-2" edge="1">
          <mxGeometry width="50" height="50" relative="1" as="geometry">
            <mxPoint x="-1100" y="670" as="sourcePoint" />
            <mxPoint x="-1220" y="590" as="targetPoint" />
          </mxGeometry>
        </mxCell>
        <mxCell id="Xh-Kn0di37GIqZYWOdox-45" value="" style="endArrow=none;html=1;rounded=0;exitX=0.5;exitY=0;exitDx=0;exitDy=0;entryX=0.5;entryY=1;entryDx=0;entryDy=0;" parent="Xh-Kn0di37GIqZYWOdox-1" source="Xh-Kn0di37GIqZYWOdox-41" target="M4JssvtR45Zc9jd6a05l-2" edge="1">
          <mxGeometry width="50" height="50" relative="1" as="geometry">
            <mxPoint x="-1100" y="670" as="sourcePoint" />
            <mxPoint x="-1220" y="590" as="targetPoint" />
          </mxGeometry>
        </mxCell>
        <mxCell id="Xh-Kn0di37GIqZYWOdox-46" value="ár" style="ellipse;whiteSpace=wrap;html=1;align=center;" parent="Xh-Kn0di37GIqZYWOdox-1" vertex="1">
          <mxGeometry x="2180" y="720" width="120" height="40" as="geometry" />
        </mxCell>
        <mxCell id="Xh-Kn0di37GIqZYWOdox-47" value="név" style="ellipse;whiteSpace=wrap;html=1;align=center;" parent="Xh-Kn0di37GIqZYWOdox-1" vertex="1">
          <mxGeometry x="2020" y="720" width="120" height="40" as="geometry" />
        </mxCell>
        <mxCell id="Xh-Kn0di37GIqZYWOdox-48" value="elkészítési idő" style="ellipse;whiteSpace=wrap;html=1;align=center;" parent="Xh-Kn0di37GIqZYWOdox-1" vertex="1">
          <mxGeometry x="2340" y="720" width="120" height="40" as="geometry" />
        </mxCell>
        <mxCell id="Xh-Kn0di37GIqZYWOdox-49" value="" style="endArrow=none;html=1;rounded=0;exitX=0.5;exitY=1;exitDx=0;exitDy=0;entryX=0.5;entryY=0;entryDx=0;entryDy=0;" parent="Xh-Kn0di37GIqZYWOdox-1" source="aaN7hWeITXNE_rKxyTwj-10" target="Xh-Kn0di37GIqZYWOdox-47" edge="1">
          <mxGeometry width="50" height="50" relative="1" as="geometry">
            <mxPoint x="1980" y="940" as="sourcePoint" />
            <mxPoint x="2150" y="1130" as="targetPoint" />
          </mxGeometry>
        </mxCell>
        <mxCell id="Xh-Kn0di37GIqZYWOdox-50" value="" style="endArrow=none;html=1;rounded=0;exitX=0.5;exitY=1;exitDx=0;exitDy=0;entryX=0.5;entryY=0;entryDx=0;entryDy=0;" parent="Xh-Kn0di37GIqZYWOdox-1" source="aaN7hWeITXNE_rKxyTwj-10" target="Xh-Kn0di37GIqZYWOdox-46" edge="1">
          <mxGeometry width="50" height="50" relative="1" as="geometry">
            <mxPoint x="1980" y="940" as="sourcePoint" />
            <mxPoint x="2150" y="1130" as="targetPoint" />
          </mxGeometry>
        </mxCell>
        <mxCell id="Xh-Kn0di37GIqZYWOdox-51" value="" style="endArrow=none;html=1;rounded=0;exitX=0.5;exitY=1;exitDx=0;exitDy=0;entryX=0.5;entryY=0;entryDx=0;entryDy=0;" parent="Xh-Kn0di37GIqZYWOdox-1" source="aaN7hWeITXNE_rKxyTwj-10" target="Xh-Kn0di37GIqZYWOdox-48" edge="1">
          <mxGeometry width="50" height="50" relative="1" as="geometry">
            <mxPoint x="1980" y="940" as="sourcePoint" />
            <mxPoint x="2150" y="1130" as="targetPoint" />
          </mxGeometry>
        </mxCell>
        <mxCell id="Xh-Kn0di37GIqZYWOdox-52" value="név" style="ellipse;whiteSpace=wrap;html=1;align=center;" parent="Xh-Kn0di37GIqZYWOdox-1" vertex="1">
          <mxGeometry x="3940" y="720" width="121" height="40" as="geometry" />
        </mxCell>
        <mxCell id="Xh-Kn0di37GIqZYWOdox-53" value="telefonszám" style="ellipse;whiteSpace=wrap;html=1;align=center;" parent="Xh-Kn0di37GIqZYWOdox-1" vertex="1">
          <mxGeometry x="4699" y="720" width="121" height="40" as="geometry" />
        </mxCell>
        <mxCell id="Xh-Kn0di37GIqZYWOdox-54" value="" style="endArrow=none;html=1;rounded=0;exitX=0.5;exitY=0;exitDx=0;exitDy=0;entryX=0.5;entryY=1;entryDx=0;entryDy=0;" parent="Xh-Kn0di37GIqZYWOdox-1" source="Xh-Kn0di37GIqZYWOdox-52" target="aaN7hWeITXNE_rKxyTwj-14" edge="1">
          <mxGeometry width="50" height="50" relative="1" as="geometry">
            <mxPoint x="2659" y="350" as="sourcePoint" />
            <mxPoint x="2619" y="240" as="targetPoint" />
          </mxGeometry>
        </mxCell>
        <mxCell id="Xh-Kn0di37GIqZYWOdox-55" value="" style="endArrow=none;html=1;rounded=0;exitX=0.5;exitY=0;exitDx=0;exitDy=0;entryX=0.5;entryY=1;entryDx=0;entryDy=0;" parent="Xh-Kn0di37GIqZYWOdox-1" source="Xh-Kn0di37GIqZYWOdox-53" target="aaN7hWeITXNE_rKxyTwj-14" edge="1">
          <mxGeometry width="50" height="50" relative="1" as="geometry">
            <mxPoint x="2659" y="350" as="sourcePoint" />
            <mxPoint x="2619" y="240" as="targetPoint" />
          </mxGeometry>
        </mxCell>
        <mxCell id="Xh-Kn0di37GIqZYWOdox-56" value="lejárati dátum" style="ellipse;whiteSpace=wrap;html=1;align=center;" parent="Xh-Kn0di37GIqZYWOdox-1" vertex="1">
          <mxGeometry x="3060" y="720" width="120" height="40" as="geometry" />
        </mxCell>
        <mxCell id="Xh-Kn0di37GIqZYWOdox-57" value="kártyán szerplő név" style="ellipse;whiteSpace=wrap;html=1;align=center;" parent="Xh-Kn0di37GIqZYWOdox-1" vertex="1">
          <mxGeometry x="2900" y="720" width="120" height="40" as="geometry" />
        </mxCell>
        <mxCell id="Xh-Kn0di37GIqZYWOdox-58" value="biztonsági kód" style="ellipse;whiteSpace=wrap;html=1;align=center;" parent="Xh-Kn0di37GIqZYWOdox-1" vertex="1">
          <mxGeometry x="3223" y="720" width="120" height="40" as="geometry" />
        </mxCell>
        <mxCell id="Xh-Kn0di37GIqZYWOdox-60" value="" style="endArrow=none;html=1;rounded=0;exitX=0.5;exitY=0;exitDx=0;exitDy=0;entryX=0.5;entryY=1;entryDx=0;entryDy=0;" parent="Xh-Kn0di37GIqZYWOdox-1" source="Xh-Kn0di37GIqZYWOdox-57" target="345c_xZCL3WyElE7TL_T-0" edge="1">
          <mxGeometry width="50" height="50" relative="1" as="geometry">
            <mxPoint x="3843" y="540" as="sourcePoint" />
            <mxPoint x="3952.999999999999" y="460" as="targetPoint" />
          </mxGeometry>
        </mxCell>
        <mxCell id="Xh-Kn0di37GIqZYWOdox-61" value="" style="endArrow=none;html=1;rounded=0;exitX=0.5;exitY=0;exitDx=0;exitDy=0;entryX=0.5;entryY=1;entryDx=0;entryDy=0;" parent="Xh-Kn0di37GIqZYWOdox-1" source="Xh-Kn0di37GIqZYWOdox-56" target="345c_xZCL3WyElE7TL_T-0" edge="1">
          <mxGeometry width="50" height="50" relative="1" as="geometry">
            <mxPoint x="3843" y="540" as="sourcePoint" />
            <mxPoint x="3952.999999999999" y="460" as="targetPoint" />
          </mxGeometry>
        </mxCell>
        <mxCell id="Xh-Kn0di37GIqZYWOdox-62" value="" style="endArrow=none;html=1;rounded=0;exitX=0.5;exitY=0;exitDx=0;exitDy=0;entryX=0.5;entryY=1;entryDx=0;entryDy=0;" parent="Xh-Kn0di37GIqZYWOdox-1" source="Xh-Kn0di37GIqZYWOdox-58" target="345c_xZCL3WyElE7TL_T-0" edge="1">
          <mxGeometry width="50" height="50" relative="1" as="geometry">
            <mxPoint x="3843" y="540" as="sourcePoint" />
            <mxPoint x="3952.999999999999" y="460" as="targetPoint" />
          </mxGeometry>
        </mxCell>
        <mxCell id="Xh-Kn0di37GIqZYWOdox-63" value="" style="endArrow=none;html=1;rounded=0;exitX=0.5;exitY=0;exitDx=0;exitDy=0;entryX=0.5;entryY=1;entryDx=0;entryDy=0;" parent="Xh-Kn0di37GIqZYWOdox-1" source="Xh-Kn0di37GIqZYWOdox-59" target="345c_xZCL3WyElE7TL_T-0" edge="1">
          <mxGeometry width="50" height="50" relative="1" as="geometry">
            <mxPoint x="3843" y="540" as="sourcePoint" />
            <mxPoint x="3952.999999999999" y="460" as="targetPoint" />
          </mxGeometry>
        </mxCell>
        <mxCell id="Xh-Kn0di37GIqZYWOdox-65" value="" style="endArrow=none;html=1;rounded=0;exitX=0.5;exitY=0;exitDx=0;exitDy=0;entryX=0.5;entryY=1;entryDx=0;entryDy=0;" parent="Xh-Kn0di37GIqZYWOdox-1" source="345c_xZCL3WyElE7TL_T-1" target="345c_xZCL3WyElE7TL_T-0" edge="1">
          <mxGeometry width="50" height="50" relative="1" as="geometry">
            <mxPoint x="2663" y="700" as="sourcePoint" />
            <mxPoint x="3952.999999999999" y="460" as="targetPoint" />
          </mxGeometry>
        </mxCell>
        <mxCell id="Xh-Kn0di37GIqZYWOdox-67" value="" style="endArrow=none;html=1;rounded=0;exitX=0.5;exitY=0;exitDx=0;exitDy=0;entryX=0.5;entryY=1;entryDx=0;entryDy=0;" parent="Xh-Kn0di37GIqZYWOdox-1" source="aaN7hWeITXNE_rKxyTwj-15" target="aaN7hWeITXNE_rKxyTwj-14" edge="1">
          <mxGeometry width="50" height="50" relative="1" as="geometry">
            <mxPoint x="1739" y="389.99999999999955" as="sourcePoint" />
            <mxPoint x="1909" y="240" as="targetPoint" />
          </mxGeometry>
        </mxCell>
        <mxCell id="Xh-Kn0di37GIqZYWOdox-69" value="" style="endArrow=none;html=1;rounded=0;entryX=0.5;entryY=1;entryDx=0;entryDy=0;exitX=0.5;exitY=0;exitDx=0;exitDy=0;" parent="Xh-Kn0di37GIqZYWOdox-1" source="aaN7hWeITXNE_rKxyTwj-2" target="M4JssvtR45Zc9jd6a05l-2" edge="1">
          <mxGeometry width="50" height="50" relative="1" as="geometry">
            <mxPoint x="-1410" y="670" as="sourcePoint" />
            <mxPoint x="-1220" y="590" as="targetPoint" />
          </mxGeometry>
        </mxCell>
        <mxCell id="Xh-Kn0di37GIqZYWOdox-71" value="" style="endArrow=none;html=1;rounded=0;exitX=0.5;exitY=1;exitDx=0;exitDy=0;entryX=0.5;entryY=0;entryDx=0;entryDy=0;" parent="Xh-Kn0di37GIqZYWOdox-1" source="aaN7hWeITXNE_rKxyTwj-10" target="aaN7hWeITXNE_rKxyTwj-11" edge="1">
          <mxGeometry width="50" height="50" relative="1" as="geometry">
            <mxPoint x="1980" y="940" as="sourcePoint" />
            <mxPoint x="1739.9999999999995" y="820" as="targetPoint" />
          </mxGeometry>
        </mxCell>
        <mxCell id="Xh-Kn0di37GIqZYWOdox-73" value="" style="endArrow=none;html=1;rounded=0;exitX=0.5;exitY=0;exitDx=0;exitDy=0;entryX=0.5;entryY=1;entryDx=0;entryDy=0;" parent="Xh-Kn0di37GIqZYWOdox-1" source="aaN7hWeITXNE_rKxyTwj-6" target="aaN7hWeITXNE_rKxyTwj-4" edge="1">
          <mxGeometry width="50" height="50" relative="1" as="geometry">
            <mxPoint x="-820.0000000000005" y="749.9999999999995" as="sourcePoint" />
            <mxPoint x="-640.0000000000005" y="630" as="targetPoint" />
          </mxGeometry>
        </mxCell>
        <mxCell id="Xh-Kn0di37GIqZYWOdox-76" value="" style="endArrow=none;html=1;rounded=0;exitX=0.5;exitY=0;exitDx=0;exitDy=0;entryX=0.5;entryY=1;entryDx=0;entryDy=0;" parent="Xh-Kn0di37GIqZYWOdox-1" source="aaN7hWeITXNE_rKxyTwj-5" target="aaN7hWeITXNE_rKxyTwj-4" edge="1">
          <mxGeometry width="50" height="50" relative="1" as="geometry">
            <mxPoint x="-600.0000000000005" y="749.9999999999995" as="sourcePoint" />
            <mxPoint x="-640.0000000000005" y="630" as="targetPoint" />
          </mxGeometry>
        </mxCell>
        <mxCell id="Xh-Kn0di37GIqZYWOdox-78" value="" style="endArrow=none;html=1;rounded=0;exitX=0.5;exitY=0;exitDx=0;exitDy=0;entryX=0.5;entryY=1;entryDx=0;entryDy=0;" parent="Xh-Kn0di37GIqZYWOdox-1" source="aaN7hWeITXNE_rKxyTwj-1" target="M4JssvtR45Zc9jd6a05l-2" edge="1">
          <mxGeometry width="50" height="50" relative="1" as="geometry">
            <mxPoint x="-1040" y="709.9999999999995" as="sourcePoint" />
            <mxPoint x="-1220" y="590" as="targetPoint" />
          </mxGeometry>
        </mxCell>
        <mxCell id="Xh-Kn0di37GIqZYWOdox-80" value="" style="endArrow=none;html=1;rounded=0;exitX=0.5;exitY=1;exitDx=0;exitDy=0;entryX=0.5;entryY=0;entryDx=0;entryDy=0;" parent="Xh-Kn0di37GIqZYWOdox-1" source="aaN7hWeITXNE_rKxyTwj-10" target="dBNDkM5XXraihJlwGYf0-1" edge="1">
          <mxGeometry width="50" height="50" relative="1" as="geometry">
            <mxPoint x="1980" y="940" as="sourcePoint" />
            <mxPoint x="2560" y="720" as="targetPoint" />
          </mxGeometry>
        </mxCell>
        <mxCell id="Xh-Kn0di37GIqZYWOdox-83" value="&lt;font style=&quot;font-size: 9px;&quot;&gt;közterület megnevezése&lt;/font&gt;" style="ellipse;whiteSpace=wrap;html=1;align=center;" parent="Xh-Kn0di37GIqZYWOdox-1" vertex="1">
          <mxGeometry x="4340" y="837" width="80" height="40" as="geometry" />
        </mxCell>
        <mxCell id="Xh-Kn0di37GIqZYWOdox-84" value="&lt;font style=&quot;font-size: 9px;&quot;&gt;közterület neve&lt;/font&gt;" style="ellipse;whiteSpace=wrap;html=1;align=center;" parent="Xh-Kn0di37GIqZYWOdox-1" vertex="1">
          <mxGeometry x="4220" y="840" width="80.5" height="40" as="geometry" />
        </mxCell>
        <mxCell id="Xh-Kn0di37GIqZYWOdox-85" value="&lt;font style=&quot;font-size: 9px;&quot;&gt;irányítószám&lt;/font&gt;" style="ellipse;whiteSpace=wrap;html=1;align=center;" parent="Xh-Kn0di37GIqZYWOdox-1" vertex="1">
          <mxGeometry x="4100" y="840" width="80" height="40" as="geometry" />
        </mxCell>
        <mxCell id="Xh-Kn0di37GIqZYWOdox-86" value="&lt;font style=&quot;font-size: 9px;&quot;&gt;házszám&lt;/font&gt;" style="ellipse;whiteSpace=wrap;html=1;align=center;" parent="Xh-Kn0di37GIqZYWOdox-1" vertex="1">
          <mxGeometry x="4460" y="837" width="80.5" height="40" as="geometry" />
        </mxCell>
        <mxCell id="Xh-Kn0di37GIqZYWOdox-87" value="&lt;font style=&quot;font-size: 9px;&quot;&gt;emelet/ajtó&lt;/font&gt;" style="ellipse;whiteSpace=wrap;html=1;align=center;" parent="Xh-Kn0di37GIqZYWOdox-1" vertex="1">
          <mxGeometry x="4580" y="840" width="80" height="40" as="geometry" />
        </mxCell>
        <mxCell id="Xh-Kn0di37GIqZYWOdox-93" value="" style="endArrow=none;html=1;rounded=0;exitX=0.5;exitY=0;exitDx=0;exitDy=0;entryX=0.5;entryY=1;entryDx=0;entryDy=0;" parent="Xh-Kn0di37GIqZYWOdox-1" source="aaN7hWeITXNE_rKxyTwj-8" target="aaN7hWeITXNE_rKxyTwj-9" edge="1">
          <mxGeometry width="50" height="50" relative="1" as="geometry">
            <mxPoint x="170" y="749.9999999999995" as="sourcePoint" />
            <mxPoint x="410" y="630" as="targetPoint" />
          </mxGeometry>
        </mxCell>
        <mxCell id="M4JssvtR45Zc9jd6a05l-2" value="Rendelés" style="ellipse;shape=doubleEllipse;margin=3;whiteSpace=wrap;html=1;align=center;" parent="Xh-Kn0di37GIqZYWOdox-1" vertex="1">
          <mxGeometry x="-1279" y="480" width="160" height="60" as="geometry" />
        </mxCell>
        <mxCell id="aaN7hWeITXNE_rKxyTwj-1" value="teljes ár" style="ellipse;whiteSpace=wrap;html=1;align=center;" parent="Xh-Kn0di37GIqZYWOdox-1" vertex="1">
          <mxGeometry x="-1020" y="720" width="119" height="40" as="geometry" />
        </mxCell>
        <mxCell id="aaN7hWeITXNE_rKxyTwj-2" value="rendelésID" style="shape=rhombus;perimeter=rhombusPerimeter;whiteSpace=wrap;html=1;align=center;fontStyle=4" parent="Xh-Kn0di37GIqZYWOdox-1" vertex="1">
          <mxGeometry x="-1500" y="700" width="120" height="80" as="geometry" />
        </mxCell>
        <mxCell id="aaN7hWeITXNE_rKxyTwj-4" value="Étterem" style="ellipse;shape=doubleEllipse;margin=3;whiteSpace=wrap;html=1;align=center;" parent="Xh-Kn0di37GIqZYWOdox-1" vertex="1">
          <mxGeometry x="-400" y="480" width="160" height="60" as="geometry" />
        </mxCell>
        <mxCell id="aaN7hWeITXNE_rKxyTwj-5" value="nyitvatartás" style="ellipse;whiteSpace=wrap;html=1;align=center;" parent="Xh-Kn0di37GIqZYWOdox-1" vertex="1">
          <mxGeometry x="-300" y="720" width="120" height="40" as="geometry" />
        </mxCell>
        <mxCell id="aaN7hWeITXNE_rKxyTwj-6" value="étteremID" style="shape=rhombus;perimeter=rhombusPerimeter;whiteSpace=wrap;html=1;align=center;fontStyle=4" parent="Xh-Kn0di37GIqZYWOdox-1" vertex="1">
          <mxGeometry x="-620" y="700" width="120" height="80" as="geometry" />
        </mxCell>
        <mxCell id="aaN7hWeITXNE_rKxyTwj-7" value="" style="endArrow=none;html=1;rounded=0;exitX=0.5;exitY=0;exitDx=0;exitDy=0;entryX=0.5;entryY=1;entryDx=0;entryDy=0;" parent="Xh-Kn0di37GIqZYWOdox-1" source="Xh-Kn0di37GIqZYWOdox-31" target="aaN7hWeITXNE_rKxyTwj-9" edge="1">
          <mxGeometry width="50" height="50" relative="1" as="geometry">
            <mxPoint x="410" y="870" as="sourcePoint" />
            <mxPoint x="730" y="900" as="targetPoint" />
          </mxGeometry>
        </mxCell>
        <mxCell id="Xh-Kn0di37GIqZYWOdox-29" value="telefonszám" style="ellipse;whiteSpace=wrap;html=1;align=center;" parent="Xh-Kn0di37GIqZYWOdox-1" vertex="1">
          <mxGeometry x="580" y="720" width="120" height="40" as="geometry" />
        </mxCell>
        <mxCell id="aaN7hWeITXNE_rKxyTwj-8" value="futárID" style="shape=rhombus;perimeter=rhombusPerimeter;whiteSpace=wrap;html=1;align=center;fontStyle=4" parent="Xh-Kn0di37GIqZYWOdox-1" vertex="1">
          <mxGeometry x="260" y="700" width="120" height="80" as="geometry" />
        </mxCell>
        <mxCell id="aaN7hWeITXNE_rKxyTwj-9" value="Futár" style="ellipse;shape=doubleEllipse;margin=3;whiteSpace=wrap;html=1;align=center;" parent="Xh-Kn0di37GIqZYWOdox-1" vertex="1">
          <mxGeometry x="480" y="480" width="160" height="60" as="geometry" />
        </mxCell>
        <mxCell id="aaN7hWeITXNE_rKxyTwj-10" value="Termék" style="ellipse;shape=doubleEllipse;margin=3;whiteSpace=wrap;html=1;align=center;" parent="Xh-Kn0di37GIqZYWOdox-1" vertex="1">
          <mxGeometry x="2160" y="480" width="160" height="60" as="geometry" />
        </mxCell>
        <mxCell id="aaN7hWeITXNE_rKxyTwj-14" value="Vevő" style="ellipse;shape=doubleEllipse;margin=3;whiteSpace=wrap;html=1;align=center;" parent="Xh-Kn0di37GIqZYWOdox-1" vertex="1">
          <mxGeometry x="4300" y="490" width="160" height="60" as="geometry" />
        </mxCell>
        <mxCell id="aaN7hWeITXNE_rKxyTwj-15" value="vevőID" style="shape=rhombus;perimeter=rhombusPerimeter;whiteSpace=wrap;html=1;align=center;fontStyle=4" parent="Xh-Kn0di37GIqZYWOdox-1" vertex="1">
          <mxGeometry x="3780" y="700" width="120" height="80" as="geometry" />
        </mxCell>
        <mxCell id="345c_xZCL3WyElE7TL_T-0" value="Bankkártya" style="ellipse;shape=doubleEllipse;margin=3;whiteSpace=wrap;html=1;align=center;" parent="Xh-Kn0di37GIqZYWOdox-1" vertex="1">
          <mxGeometry x="3120" y="480" width="160" height="60" as="geometry" />
        </mxCell>
        <mxCell id="345c_xZCL3WyElE7TL_T-1" value="kártyaszám" style="shape=rhombus;perimeter=rhombusPerimeter;whiteSpace=wrap;html=1;align=center;fontStyle=4" parent="Xh-Kn0di37GIqZYWOdox-1" vertex="1">
          <mxGeometry x="2740" y="700" width="120" height="80" as="geometry" />
        </mxCell>
        <mxCell id="r0x1wRawukBs28vUSTCK-0" value="rendelésID" style="shape=rhombus;perimeter=rhombusPerimeter;whiteSpace=wrap;html=1;align=center;fontStyle=0" parent="Xh-Kn0di37GIqZYWOdox-1" vertex="1">
          <mxGeometry x="4860" y="700" width="120" height="80" as="geometry" />
        </mxCell>
        <mxCell id="r0x1wRawukBs28vUSTCK-1" value="" style="endArrow=none;html=1;rounded=0;exitX=0.5;exitY=0;exitDx=0;exitDy=0;entryX=0.5;entryY=1;entryDx=0;entryDy=0;" parent="Xh-Kn0di37GIqZYWOdox-1" source="r0x1wRawukBs28vUSTCK-0" target="aaN7hWeITXNE_rKxyTwj-14" edge="1">
          <mxGeometry width="50" height="50" relative="1" as="geometry">
            <mxPoint x="2060" y="320" as="sourcePoint" />
            <mxPoint x="2110" y="270" as="targetPoint" />
          </mxGeometry>
        </mxCell>
        <mxCell id="yQFo7qpWRUm1xgnEiaSd-1" value="vevőID" style="shape=rhombus;perimeter=rhombusPerimeter;whiteSpace=wrap;html=1;align=center;" parent="Xh-Kn0di37GIqZYWOdox-1" vertex="1">
          <mxGeometry x="3540" y="700" width="120" height="80" as="geometry" />
        </mxCell>
        <mxCell id="yQFo7qpWRUm1xgnEiaSd-2" value="" style="endArrow=none;html=1;rounded=0;exitX=0.5;exitY=0;exitDx=0;exitDy=0;entryX=0.5;entryY=1;entryDx=0;entryDy=0;" parent="Xh-Kn0di37GIqZYWOdox-1" source="yQFo7qpWRUm1xgnEiaSd-1" target="345c_xZCL3WyElE7TL_T-0" edge="1">
          <mxGeometry width="50" height="50" relative="1" as="geometry">
            <mxPoint x="3463" y="700" as="sourcePoint" />
            <mxPoint x="2723" y="870" as="targetPoint" />
          </mxGeometry>
        </mxCell>
        <mxCell id="yQFo7qpWRUm1xgnEiaSd-3" value="" style="endArrow=classic;html=1;rounded=0;exitX=0.5;exitY=1;exitDx=0;exitDy=0;entryX=0.5;entryY=1;entryDx=0;entryDy=0;edgeStyle=orthogonalEdgeStyle;dashed=1;" parent="Xh-Kn0di37GIqZYWOdox-1" source="yQFo7qpWRUm1xgnEiaSd-1" target="aaN7hWeITXNE_rKxyTwj-15" edge="1">
          <mxGeometry width="50" height="50" relative="1" as="geometry">
            <mxPoint x="690" y="790" as="sourcePoint" />
            <mxPoint x="740" y="740" as="targetPoint" />
            <Array as="points">
              <mxPoint x="3600" y="920" />
              <mxPoint x="3840" y="920" />
            </Array>
          </mxGeometry>
        </mxCell>
        <mxCell id="DVLYHYs1H094bhxdaPZL-0" value="étteremID" style="shape=rhombus;perimeter=rhombusPerimeter;whiteSpace=wrap;html=1;align=center;" parent="Xh-Kn0di37GIqZYWOdox-1" vertex="1">
          <mxGeometry x="-860" y="700" width="120" height="80" as="geometry" />
        </mxCell>
        <mxCell id="DVLYHYs1H094bhxdaPZL-1" value="" style="endArrow=none;html=1;rounded=0;exitX=0.5;exitY=1;exitDx=0;exitDy=0;entryX=0.5;entryY=0;entryDx=0;entryDy=0;" parent="Xh-Kn0di37GIqZYWOdox-1" source="M4JssvtR45Zc9jd6a05l-2" target="DVLYHYs1H094bhxdaPZL-0" edge="1">
          <mxGeometry width="50" height="50" relative="1" as="geometry">
            <mxPoint x="-460" y="840" as="sourcePoint" />
            <mxPoint x="-410" y="790" as="targetPoint" />
          </mxGeometry>
        </mxCell>
        <mxCell id="DVLYHYs1H094bhxdaPZL-2" value="" style="endArrow=classic;html=1;rounded=0;entryX=0;entryY=1;entryDx=0;entryDy=0;edgeStyle=orthogonalEdgeStyle;exitX=0.5;exitY=1;exitDx=0;exitDy=0;dashed=1;" parent="Xh-Kn0di37GIqZYWOdox-1" source="DVLYHYs1H094bhxdaPZL-0" target="aaN7hWeITXNE_rKxyTwj-6" edge="1">
          <mxGeometry width="50" height="50" relative="1" as="geometry">
            <mxPoint x="-460" y="840" as="sourcePoint" />
            <mxPoint x="-410" y="790" as="targetPoint" />
            <Array as="points">
              <mxPoint x="-800" y="920" />
              <mxPoint x="-590" y="920" />
            </Array>
          </mxGeometry>
        </mxCell>
        <mxCell id="ncjee4Aue2dsqnZww5rq-0" value="étteremID" style="shape=rhombus;perimeter=rhombusPerimeter;whiteSpace=wrap;html=1;align=center;" parent="Xh-Kn0di37GIqZYWOdox-1" vertex="1">
          <mxGeometry x="100" y="700" width="120" height="80" as="geometry" />
        </mxCell>
        <mxCell id="ncjee4Aue2dsqnZww5rq-1" value="" style="endArrow=none;html=1;rounded=0;exitX=0.5;exitY=0;exitDx=0;exitDy=0;entryX=0.5;entryY=1;entryDx=0;entryDy=0;" parent="Xh-Kn0di37GIqZYWOdox-1" source="ncjee4Aue2dsqnZww5rq-0" target="aaN7hWeITXNE_rKxyTwj-9" edge="1">
          <mxGeometry width="50" height="50" relative="1" as="geometry">
            <mxPoint x="60" y="720" as="sourcePoint" />
            <mxPoint x="110" y="670" as="targetPoint" />
          </mxGeometry>
        </mxCell>
        <mxCell id="ncjee4Aue2dsqnZww5rq-2" value="" style="endArrow=classic;html=1;rounded=0;exitX=0.5;exitY=1;exitDx=0;exitDy=0;entryX=0.5;entryY=1;entryDx=0;entryDy=0;edgeStyle=orthogonalEdgeStyle;dashed=1;" parent="Xh-Kn0di37GIqZYWOdox-1" source="ncjee4Aue2dsqnZww5rq-0" target="aaN7hWeITXNE_rKxyTwj-6" edge="1">
          <mxGeometry width="50" height="50" relative="1" as="geometry">
            <mxPoint x="60" y="720" as="sourcePoint" />
            <mxPoint x="110" y="670" as="targetPoint" />
            <Array as="points">
              <mxPoint x="160" y="920" />
              <mxPoint x="-560" y="920" />
            </Array>
          </mxGeometry>
        </mxCell>
        <mxCell id="PA8aLBM9HCZWolVJA6t9-0" value="RT" style="ellipse;shape=doubleEllipse;margin=3;whiteSpace=wrap;html=1;align=center;" parent="Xh-Kn0di37GIqZYWOdox-1" vertex="1">
          <mxGeometry x="1360" y="480" width="160" height="60" as="geometry" />
        </mxCell>
        <mxCell id="PA8aLBM9HCZWolVJA6t9-1" value="mennyiség" style="ellipse;whiteSpace=wrap;html=1;align=center;" parent="Xh-Kn0di37GIqZYWOdox-1" vertex="1">
          <mxGeometry x="1298.5" y="720" width="120" height="40" as="geometry" />
        </mxCell>
        <mxCell id="PA8aLBM9HCZWolVJA6t9-2" value="" style="endArrow=none;html=1;rounded=0;exitX=0.5;exitY=0;exitDx=0;exitDy=0;entryX=0.5;entryY=1;entryDx=0;entryDy=0;" parent="Xh-Kn0di37GIqZYWOdox-1" source="PA8aLBM9HCZWolVJA6t9-1" target="PA8aLBM9HCZWolVJA6t9-0" edge="1">
          <mxGeometry width="50" height="50" relative="1" as="geometry">
            <mxPoint x="610" y="965" as="sourcePoint" />
            <mxPoint x="660" y="915" as="targetPoint" />
          </mxGeometry>
        </mxCell>
        <mxCell id="PA8aLBM9HCZWolVJA6t9-4" value="rendelésID" style="shape=rhombus;perimeter=rhombusPerimeter;whiteSpace=wrap;html=1;align=center;" parent="Xh-Kn0di37GIqZYWOdox-1" vertex="1">
          <mxGeometry x="1140" y="700" width="120" height="80" as="geometry" />
        </mxCell>
        <mxCell id="PA8aLBM9HCZWolVJA6t9-5" value="" style="endArrow=none;html=1;rounded=0;exitX=0.5;exitY=0;exitDx=0;exitDy=0;entryX=0.5;entryY=1;entryDx=0;entryDy=0;" parent="Xh-Kn0di37GIqZYWOdox-1" source="PA8aLBM9HCZWolVJA6t9-4" target="PA8aLBM9HCZWolVJA6t9-0" edge="1">
          <mxGeometry width="50" height="50" relative="1" as="geometry">
            <mxPoint x="790" y="965" as="sourcePoint" />
            <mxPoint x="840" y="915" as="targetPoint" />
          </mxGeometry>
        </mxCell>
        <mxCell id="PA8aLBM9HCZWolVJA6t9-6" value="termékID" style="shape=rhombus;perimeter=rhombusPerimeter;whiteSpace=wrap;html=1;align=center;" parent="Xh-Kn0di37GIqZYWOdox-1" vertex="1">
          <mxGeometry x="1620" y="700" width="120" height="80" as="geometry" />
        </mxCell>
        <mxCell id="PA8aLBM9HCZWolVJA6t9-7" value="" style="endArrow=none;html=1;rounded=0;exitX=0.5;exitY=1;exitDx=0;exitDy=0;entryX=0.5;entryY=0;entryDx=0;entryDy=0;" parent="Xh-Kn0di37GIqZYWOdox-1" source="PA8aLBM9HCZWolVJA6t9-0" target="PA8aLBM9HCZWolVJA6t9-6" edge="1">
          <mxGeometry width="50" height="50" relative="1" as="geometry">
            <mxPoint x="1470" y="795" as="sourcePoint" />
            <mxPoint x="1520" y="745" as="targetPoint" />
          </mxGeometry>
        </mxCell>
        <mxCell id="PA8aLBM9HCZWolVJA6t9-8" value="" style="endArrow=classic;html=1;rounded=0;exitX=0.5;exitY=1;exitDx=0;exitDy=0;entryX=1;entryY=1;entryDx=0;entryDy=0;edgeStyle=orthogonalEdgeStyle;dashed=1;" parent="Xh-Kn0di37GIqZYWOdox-1" source="PA8aLBM9HCZWolVJA6t9-4" target="aaN7hWeITXNE_rKxyTwj-2" edge="1">
          <mxGeometry width="50" height="50" relative="1" as="geometry">
            <mxPoint x="1610" y="690" as="sourcePoint" />
            <mxPoint x="-1414.1176470588234" y="820" as="targetPoint" />
            <Array as="points">
              <mxPoint x="1200" y="960" />
              <mxPoint x="-1410" y="960" />
            </Array>
          </mxGeometry>
        </mxCell>
        <mxCell id="aaN7hWeITXNE_rKxyTwj-11" value="termékID" style="shape=rhombus;perimeter=rhombusPerimeter;whiteSpace=wrap;html=1;align=center;fontStyle=4" parent="Xh-Kn0di37GIqZYWOdox-1" vertex="1">
          <mxGeometry x="1860" y="700" width="120" height="80" as="geometry" />
        </mxCell>
        <mxCell id="g_2qllGUYKkwJUjAIWZy-0" value="" style="endArrow=classic;html=1;rounded=0;exitX=0.5;exitY=1;exitDx=0;exitDy=0;entryX=0.5;entryY=1;entryDx=0;entryDy=0;edgeStyle=orthogonalEdgeStyle;dashed=1;" parent="Xh-Kn0di37GIqZYWOdox-1" source="PA8aLBM9HCZWolVJA6t9-6" target="aaN7hWeITXNE_rKxyTwj-11" edge="1">
          <mxGeometry width="50" height="50" relative="1" as="geometry">
            <mxPoint x="2050" y="500" as="sourcePoint" />
            <mxPoint x="2100" y="450" as="targetPoint" />
            <Array as="points">
              <mxPoint x="1680" y="840" />
              <mxPoint x="1920" y="840" />
            </Array>
          </mxGeometry>
        </mxCell>
        <mxCell id="pCgSt5Hupfk0SRYjgn7x-1" value="" style="endArrow=classic;html=1;rounded=0;exitX=0.5;exitY=1;exitDx=0;exitDy=0;entryX=0.5;entryY=1;entryDx=0;entryDy=0;edgeStyle=orthogonalEdgeStyle;dashed=1;" parent="Xh-Kn0di37GIqZYWOdox-1" source="r0x1wRawukBs28vUSTCK-0" target="aaN7hWeITXNE_rKxyTwj-2" edge="1">
          <mxGeometry width="50" height="50" relative="1" as="geometry">
            <mxPoint x="4870" y="660" as="sourcePoint" />
            <mxPoint x="4920" y="610" as="targetPoint" />
            <Array as="points">
              <mxPoint x="4920" y="1040" />
              <mxPoint x="-1440" y="1040" />
            </Array>
          </mxGeometry>
        </mxCell>
        <mxCell id="pCgSt5Hupfk0SRYjgn7x-2" value="F023QC_rendelesek" style="ellipse;shape=doubleEllipse;margin=3;whiteSpace=wrap;html=1;align=center;" parent="Xh-Kn0di37GIqZYWOdox-1" vertex="1">
          <mxGeometry x="1740" y="-60" width="160" height="60" as="geometry" />
        </mxCell>
        <mxCell id="pCgSt5Hupfk0SRYjgn7x-3" value="" style="endArrow=none;html=1;rounded=0;exitX=0.5;exitY=0;exitDx=0;exitDy=0;entryX=0.5;entryY=1;entryDx=0;entryDy=0;" parent="Xh-Kn0di37GIqZYWOdox-1" source="M4JssvtR45Zc9jd6a05l-2" target="pCgSt5Hupfk0SRYjgn7x-2" edge="1">
          <mxGeometry width="50" height="50" relative="1" as="geometry">
            <mxPoint x="1290" y="-190" as="sourcePoint" />
            <mxPoint x="1340" y="-240" as="targetPoint" />
          </mxGeometry>
        </mxCell>
        <mxCell id="pCgSt5Hupfk0SRYjgn7x-4" value="" style="endArrow=none;html=1;rounded=0;exitX=0.5;exitY=0;exitDx=0;exitDy=0;entryX=0.5;entryY=1;entryDx=0;entryDy=0;" parent="Xh-Kn0di37GIqZYWOdox-1" source="aaN7hWeITXNE_rKxyTwj-4" target="pCgSt5Hupfk0SRYjgn7x-2" edge="1">
          <mxGeometry width="50" height="50" relative="1" as="geometry">
            <mxPoint x="1290" y="-190" as="sourcePoint" />
            <mxPoint x="1340" y="-240" as="targetPoint" />
          </mxGeometry>
        </mxCell>
        <mxCell id="pCgSt5Hupfk0SRYjgn7x-5" value="" style="endArrow=none;html=1;rounded=0;exitX=0.5;exitY=0;exitDx=0;exitDy=0;entryX=0.5;entryY=1;entryDx=0;entryDy=0;" parent="Xh-Kn0di37GIqZYWOdox-1" source="aaN7hWeITXNE_rKxyTwj-9" target="pCgSt5Hupfk0SRYjgn7x-2" edge="1">
          <mxGeometry width="50" height="50" relative="1" as="geometry">
            <mxPoint x="1290" y="-190" as="sourcePoint" />
            <mxPoint x="1340" y="-240" as="targetPoint" />
          </mxGeometry>
        </mxCell>
        <mxCell id="pCgSt5Hupfk0SRYjgn7x-6" value="" style="endArrow=none;html=1;rounded=0;exitX=0.5;exitY=0;exitDx=0;exitDy=0;entryX=0.5;entryY=1;entryDx=0;entryDy=0;" parent="Xh-Kn0di37GIqZYWOdox-1" source="PA8aLBM9HCZWolVJA6t9-0" target="pCgSt5Hupfk0SRYjgn7x-2" edge="1">
          <mxGeometry width="50" height="50" relative="1" as="geometry">
            <mxPoint x="1290" y="-190" as="sourcePoint" />
            <mxPoint x="1340" y="-240" as="targetPoint" />
          </mxGeometry>
        </mxCell>
        <mxCell id="pCgSt5Hupfk0SRYjgn7x-7" value="" style="endArrow=none;html=1;rounded=0;exitX=0.5;exitY=0;exitDx=0;exitDy=0;entryX=0.5;entryY=1;entryDx=0;entryDy=0;" parent="Xh-Kn0di37GIqZYWOdox-1" source="aaN7hWeITXNE_rKxyTwj-10" target="pCgSt5Hupfk0SRYjgn7x-2" edge="1">
          <mxGeometry width="50" height="50" relative="1" as="geometry">
            <mxPoint x="1290" y="-190" as="sourcePoint" />
            <mxPoint x="1340" y="-240" as="targetPoint" />
          </mxGeometry>
        </mxCell>
        <mxCell id="pCgSt5Hupfk0SRYjgn7x-8" value="" style="endArrow=none;html=1;rounded=0;exitX=0.5;exitY=0;exitDx=0;exitDy=0;entryX=0.5;entryY=1;entryDx=0;entryDy=0;" parent="Xh-Kn0di37GIqZYWOdox-1" source="345c_xZCL3WyElE7TL_T-0" target="pCgSt5Hupfk0SRYjgn7x-2" edge="1">
          <mxGeometry width="50" height="50" relative="1" as="geometry">
            <mxPoint x="1290" y="-190" as="sourcePoint" />
            <mxPoint x="1340" y="-240" as="targetPoint" />
          </mxGeometry>
        </mxCell>
        <mxCell id="pCgSt5Hupfk0SRYjgn7x-10" value="" style="endArrow=none;html=1;rounded=0;exitX=0.5;exitY=0;exitDx=0;exitDy=0;entryX=0.5;entryY=1;entryDx=0;entryDy=0;" parent="Xh-Kn0di37GIqZYWOdox-1" source="aaN7hWeITXNE_rKxyTwj-14" target="pCgSt5Hupfk0SRYjgn7x-2" edge="1">
          <mxGeometry width="50" height="50" relative="1" as="geometry">
            <mxPoint x="1820" y="-190" as="sourcePoint" />
            <mxPoint x="1870" y="-240" as="targetPoint" />
          </mxGeometry>
        </mxCell>
        <mxCell id="qfJxJ11XqiEPvi0X_yUr-5" value="" style="endArrow=none;dashed=1;html=1;dashPattern=1 3;strokeWidth=2;rounded=0;" parent="Xh-Kn0di37GIqZYWOdox-1" edge="1">
          <mxGeometry width="50" height="50" relative="1" as="geometry">
            <mxPoint x="1650" y="750" as="sourcePoint" />
            <mxPoint x="1710" y="750" as="targetPoint" />
          </mxGeometry>
        </mxCell>
        <mxCell id="qfJxJ11XqiEPvi0X_yUr-6" value="" style="endArrow=none;dashed=1;html=1;dashPattern=1 3;strokeWidth=2;rounded=0;" parent="Xh-Kn0di37GIqZYWOdox-1" edge="1">
          <mxGeometry width="50" height="50" relative="1" as="geometry">
            <mxPoint x="1170" y="750" as="sourcePoint" />
            <mxPoint x="1230" y="750" as="targetPoint" />
          </mxGeometry>
        </mxCell>
        <mxCell id="qfJxJ11XqiEPvi0X_yUr-7" value="" style="endArrow=none;dashed=1;html=1;dashPattern=1 3;strokeWidth=2;rounded=0;" parent="Xh-Kn0di37GIqZYWOdox-1" edge="1">
          <mxGeometry width="50" height="50" relative="1" as="geometry">
            <mxPoint x="130" y="750" as="sourcePoint" />
            <mxPoint x="190" y="750" as="targetPoint" />
          </mxGeometry>
        </mxCell>
        <mxCell id="qfJxJ11XqiEPvi0X_yUr-8" value="" style="endArrow=none;dashed=1;html=1;dashPattern=1 3;strokeWidth=2;rounded=0;" parent="Xh-Kn0di37GIqZYWOdox-1" edge="1">
          <mxGeometry width="50" height="50" relative="1" as="geometry">
            <mxPoint x="-827" y="750" as="sourcePoint" />
            <mxPoint x="-767" y="750" as="targetPoint" />
          </mxGeometry>
        </mxCell>
        <mxCell id="qfJxJ11XqiEPvi0X_yUr-9" value="" style="rounded=0;whiteSpace=wrap;html=1;rotation=90;" parent="Xh-Kn0di37GIqZYWOdox-1" vertex="1">
          <mxGeometry x="-1320" y="820" width="80" height="40" as="geometry" />
        </mxCell>
        <mxCell id="qfJxJ11XqiEPvi0X_yUr-10" value="" style="rounded=0;whiteSpace=wrap;html=1;rotation=90;" parent="Xh-Kn0di37GIqZYWOdox-1" vertex="1">
          <mxGeometry x="-1160.5" y="820" width="80" height="40" as="geometry" />
        </mxCell>
        <mxCell id="qfJxJ11XqiEPvi0X_yUr-11" value="" style="rounded=0;whiteSpace=wrap;html=1;rotation=90;" parent="Xh-Kn0di37GIqZYWOdox-1" vertex="1">
          <mxGeometry x="-1000.5" y="820" width="80" height="40" as="geometry" />
        </mxCell>
        <mxCell id="qfJxJ11XqiEPvi0X_yUr-12" value="" style="endArrow=none;html=1;rounded=0;exitX=0;exitY=0.5;exitDx=0;exitDy=0;entryX=0.5;entryY=1;entryDx=0;entryDy=0;" parent="Xh-Kn0di37GIqZYWOdox-1" source="qfJxJ11XqiEPvi0X_yUr-9" target="Xh-Kn0di37GIqZYWOdox-41" edge="1">
          <mxGeometry width="50" height="50" relative="1" as="geometry">
            <mxPoint x="-890" y="670" as="sourcePoint" />
            <mxPoint x="-840" y="620" as="targetPoint" />
          </mxGeometry>
        </mxCell>
        <mxCell id="qfJxJ11XqiEPvi0X_yUr-13" value="" style="endArrow=none;html=1;rounded=0;exitX=0;exitY=0.5;exitDx=0;exitDy=0;entryX=0.5;entryY=1;entryDx=0;entryDy=0;" parent="Xh-Kn0di37GIqZYWOdox-1" source="qfJxJ11XqiEPvi0X_yUr-10" target="Xh-Kn0di37GIqZYWOdox-40" edge="1">
          <mxGeometry width="50" height="50" relative="1" as="geometry">
            <mxPoint x="-890" y="670" as="sourcePoint" />
            <mxPoint x="-840" y="620" as="targetPoint" />
          </mxGeometry>
        </mxCell>
        <mxCell id="qfJxJ11XqiEPvi0X_yUr-14" value="" style="endArrow=none;html=1;rounded=0;exitX=0;exitY=0.5;exitDx=0;exitDy=0;entryX=0.5;entryY=1;entryDx=0;entryDy=0;" parent="Xh-Kn0di37GIqZYWOdox-1" source="qfJxJ11XqiEPvi0X_yUr-11" target="aaN7hWeITXNE_rKxyTwj-1" edge="1">
          <mxGeometry width="50" height="50" relative="1" as="geometry">
            <mxPoint x="-890" y="670" as="sourcePoint" />
            <mxPoint x="-840" y="620" as="targetPoint" />
          </mxGeometry>
        </mxCell>
        <mxCell id="qfJxJ11XqiEPvi0X_yUr-15" value="" style="rounded=0;whiteSpace=wrap;html=1;rotation=90;" parent="Xh-Kn0di37GIqZYWOdox-1" vertex="1">
          <mxGeometry x="-440" y="820" width="80" height="40" as="geometry" />
        </mxCell>
        <mxCell id="qfJxJ11XqiEPvi0X_yUr-16" value="" style="rounded=0;whiteSpace=wrap;html=1;rotation=90;" parent="Xh-Kn0di37GIqZYWOdox-1" vertex="1">
          <mxGeometry x="-280" y="820" width="80" height="40" as="geometry" />
        </mxCell>
        <mxCell id="qfJxJ11XqiEPvi0X_yUr-17" value="" style="rounded=0;whiteSpace=wrap;html=1;rotation=90;" parent="Xh-Kn0di37GIqZYWOdox-1" vertex="1">
          <mxGeometry x="-120" y="820" width="80" height="40" as="geometry" />
        </mxCell>
        <mxCell id="qfJxJ11XqiEPvi0X_yUr-18" value="" style="endArrow=none;html=1;rounded=0;exitX=0;exitY=0.5;exitDx=0;exitDy=0;entryX=0.5;entryY=1;entryDx=0;entryDy=0;" parent="Xh-Kn0di37GIqZYWOdox-1" source="qfJxJ11XqiEPvi0X_yUr-15" target="Xh-Kn0di37GIqZYWOdox-36" edge="1">
          <mxGeometry width="50" height="50" relative="1" as="geometry">
            <mxPoint x="-420" y="670" as="sourcePoint" />
            <mxPoint x="-370" y="620" as="targetPoint" />
          </mxGeometry>
        </mxCell>
        <mxCell id="qfJxJ11XqiEPvi0X_yUr-19" value="" style="endArrow=none;html=1;rounded=0;exitX=0;exitY=0.5;exitDx=0;exitDy=0;entryX=0.5;entryY=1;entryDx=0;entryDy=0;" parent="Xh-Kn0di37GIqZYWOdox-1" source="qfJxJ11XqiEPvi0X_yUr-16" target="aaN7hWeITXNE_rKxyTwj-5" edge="1">
          <mxGeometry width="50" height="50" relative="1" as="geometry">
            <mxPoint x="-420" y="670" as="sourcePoint" />
            <mxPoint x="-370" y="620" as="targetPoint" />
          </mxGeometry>
        </mxCell>
        <mxCell id="qfJxJ11XqiEPvi0X_yUr-20" value="" style="endArrow=none;html=1;rounded=0;exitX=0;exitY=0.5;exitDx=0;exitDy=0;entryX=0.5;entryY=1;entryDx=0;entryDy=0;" parent="Xh-Kn0di37GIqZYWOdox-1" source="qfJxJ11XqiEPvi0X_yUr-17" target="Xh-Kn0di37GIqZYWOdox-37" edge="1">
          <mxGeometry width="50" height="50" relative="1" as="geometry">
            <mxPoint x="-420" y="670" as="sourcePoint" />
            <mxPoint x="-370" y="620" as="targetPoint" />
          </mxGeometry>
        </mxCell>
        <mxCell id="qfJxJ11XqiEPvi0X_yUr-21" value="" style="rounded=0;whiteSpace=wrap;html=1;rotation=90;" parent="Xh-Kn0di37GIqZYWOdox-1" vertex="1">
          <mxGeometry x="440" y="820" width="80" height="40" as="geometry" />
        </mxCell>
        <mxCell id="qfJxJ11XqiEPvi0X_yUr-22" value="" style="rounded=0;whiteSpace=wrap;html=1;rotation=90;" parent="Xh-Kn0di37GIqZYWOdox-1" vertex="1">
          <mxGeometry x="600" y="820" width="80" height="40" as="geometry" />
        </mxCell>
        <mxCell id="qfJxJ11XqiEPvi0X_yUr-23" value="" style="rounded=0;whiteSpace=wrap;html=1;rotation=90;" parent="Xh-Kn0di37GIqZYWOdox-1" vertex="1">
          <mxGeometry x="760" y="820" width="80" height="40" as="geometry" />
        </mxCell>
        <mxCell id="qfJxJ11XqiEPvi0X_yUr-24" value="" style="rounded=0;whiteSpace=wrap;html=1;rotation=90;" parent="Xh-Kn0di37GIqZYWOdox-1" vertex="1">
          <mxGeometry x="920" y="820" width="80" height="40" as="geometry" />
        </mxCell>
        <mxCell id="qfJxJ11XqiEPvi0X_yUr-25" value="" style="endArrow=none;html=1;rounded=0;exitX=0;exitY=0.5;exitDx=0;exitDy=0;entryX=0.5;entryY=1;entryDx=0;entryDy=0;" parent="Xh-Kn0di37GIqZYWOdox-1" source="qfJxJ11XqiEPvi0X_yUr-21" target="Xh-Kn0di37GIqZYWOdox-28" edge="1">
          <mxGeometry width="50" height="50" relative="1" as="geometry">
            <mxPoint x="430" y="670" as="sourcePoint" />
            <mxPoint x="480" y="620" as="targetPoint" />
          </mxGeometry>
        </mxCell>
        <mxCell id="qfJxJ11XqiEPvi0X_yUr-26" value="" style="endArrow=none;html=1;rounded=0;exitX=0;exitY=0.5;exitDx=0;exitDy=0;entryX=0.5;entryY=1;entryDx=0;entryDy=0;" parent="Xh-Kn0di37GIqZYWOdox-1" source="qfJxJ11XqiEPvi0X_yUr-22" target="Xh-Kn0di37GIqZYWOdox-29" edge="1">
          <mxGeometry width="50" height="50" relative="1" as="geometry">
            <mxPoint x="430" y="670" as="sourcePoint" />
            <mxPoint x="480" y="620" as="targetPoint" />
          </mxGeometry>
        </mxCell>
        <mxCell id="qfJxJ11XqiEPvi0X_yUr-27" value="" style="endArrow=none;html=1;rounded=0;exitX=0;exitY=0.5;exitDx=0;exitDy=0;entryX=0.5;entryY=1;entryDx=0;entryDy=0;" parent="Xh-Kn0di37GIqZYWOdox-1" source="qfJxJ11XqiEPvi0X_yUr-23" target="Xh-Kn0di37GIqZYWOdox-30" edge="1">
          <mxGeometry width="50" height="50" relative="1" as="geometry">
            <mxPoint x="430" y="670" as="sourcePoint" />
            <mxPoint x="480" y="620" as="targetPoint" />
          </mxGeometry>
        </mxCell>
        <mxCell id="qfJxJ11XqiEPvi0X_yUr-28" value="" style="endArrow=none;html=1;rounded=0;exitX=0;exitY=0.5;exitDx=0;exitDy=0;entryX=0.5;entryY=1;entryDx=0;entryDy=0;" parent="Xh-Kn0di37GIqZYWOdox-1" source="qfJxJ11XqiEPvi0X_yUr-24" target="Xh-Kn0di37GIqZYWOdox-31" edge="1">
          <mxGeometry width="50" height="50" relative="1" as="geometry">
            <mxPoint x="430" y="670" as="sourcePoint" />
            <mxPoint x="480" y="620" as="targetPoint" />
          </mxGeometry>
        </mxCell>
        <mxCell id="qfJxJ11XqiEPvi0X_yUr-29" value="" style="rounded=0;whiteSpace=wrap;html=1;rotation=90;" parent="Xh-Kn0di37GIqZYWOdox-1" vertex="1">
          <mxGeometry x="1318.5" y="820" width="80" height="40" as="geometry" />
        </mxCell>
        <mxCell id="qfJxJ11XqiEPvi0X_yUr-30" value="" style="endArrow=none;html=1;rounded=0;exitX=0;exitY=0.5;exitDx=0;exitDy=0;entryX=0.5;entryY=1;entryDx=0;entryDy=0;" parent="Xh-Kn0di37GIqZYWOdox-1" source="qfJxJ11XqiEPvi0X_yUr-29" target="PA8aLBM9HCZWolVJA6t9-1" edge="1">
          <mxGeometry width="50" height="50" relative="1" as="geometry">
            <mxPoint x="1560" y="670" as="sourcePoint" />
            <mxPoint x="1610" y="620" as="targetPoint" />
          </mxGeometry>
        </mxCell>
        <mxCell id="qfJxJ11XqiEPvi0X_yUr-31" value="" style="rounded=0;whiteSpace=wrap;html=1;rotation=90;" parent="Xh-Kn0di37GIqZYWOdox-1" vertex="1">
          <mxGeometry x="2040" y="820" width="80" height="40" as="geometry" />
        </mxCell>
        <mxCell id="qfJxJ11XqiEPvi0X_yUr-32" value="" style="endArrow=none;html=1;rounded=0;exitX=0;exitY=0.5;exitDx=0;exitDy=0;entryX=0.5;entryY=1;entryDx=0;entryDy=0;" parent="Xh-Kn0di37GIqZYWOdox-1" source="qfJxJ11XqiEPvi0X_yUr-31" target="Xh-Kn0di37GIqZYWOdox-47" edge="1">
          <mxGeometry width="50" height="50" relative="1" as="geometry">
            <mxPoint x="1560" y="670" as="sourcePoint" />
            <mxPoint x="1610" y="620" as="targetPoint" />
          </mxGeometry>
        </mxCell>
        <mxCell id="qfJxJ11XqiEPvi0X_yUr-33" value="" style="endArrow=none;html=1;rounded=0;exitX=0;exitY=0.5;exitDx=0;exitDy=0;entryX=0.5;entryY=1;entryDx=0;entryDy=0;" parent="Xh-Kn0di37GIqZYWOdox-1" source="qfJxJ11XqiEPvi0X_yUr-34" target="Xh-Kn0di37GIqZYWOdox-46" edge="1">
          <mxGeometry width="50" height="50" relative="1" as="geometry">
            <mxPoint x="2490" y="670" as="sourcePoint" />
            <mxPoint x="2540" y="620" as="targetPoint" />
          </mxGeometry>
        </mxCell>
        <mxCell id="qfJxJ11XqiEPvi0X_yUr-34" value="" style="rounded=0;whiteSpace=wrap;html=1;rotation=90;" parent="Xh-Kn0di37GIqZYWOdox-1" vertex="1">
          <mxGeometry x="2200" y="820" width="80" height="40" as="geometry" />
        </mxCell>
        <mxCell id="qfJxJ11XqiEPvi0X_yUr-35" value="" style="rounded=0;whiteSpace=wrap;html=1;rotation=90;" parent="Xh-Kn0di37GIqZYWOdox-1" vertex="1">
          <mxGeometry x="2360" y="820" width="80" height="40" as="geometry" />
        </mxCell>
        <mxCell id="qfJxJ11XqiEPvi0X_yUr-36" value="" style="endArrow=none;html=1;rounded=0;exitX=0;exitY=0.5;exitDx=0;exitDy=0;entryX=0.5;entryY=1;entryDx=0;entryDy=0;" parent="Xh-Kn0di37GIqZYWOdox-1" source="qfJxJ11XqiEPvi0X_yUr-35" target="Xh-Kn0di37GIqZYWOdox-48" edge="1">
          <mxGeometry width="50" height="50" relative="1" as="geometry">
            <mxPoint x="2490" y="670" as="sourcePoint" />
            <mxPoint x="2540" y="620" as="targetPoint" />
          </mxGeometry>
        </mxCell>
        <mxCell id="qfJxJ11XqiEPvi0X_yUr-37" value="" style="rounded=0;whiteSpace=wrap;html=1;rotation=90;" parent="Xh-Kn0di37GIqZYWOdox-1" vertex="1">
          <mxGeometry x="2481" y="820" width="80" height="40" as="geometry" />
        </mxCell>
        <mxCell id="qfJxJ11XqiEPvi0X_yUr-38" value="" style="endArrow=none;html=1;rounded=0;exitX=0;exitY=0.5;exitDx=0;exitDy=0;entryX=0.5;entryY=1;entryDx=0;entryDy=0;" parent="Xh-Kn0di37GIqZYWOdox-1" source="qfJxJ11XqiEPvi0X_yUr-37" target="dBNDkM5XXraihJlwGYf0-1" edge="1">
          <mxGeometry width="50" height="50" relative="1" as="geometry">
            <mxPoint x="2490" y="670" as="sourcePoint" />
            <mxPoint x="2560" y="760" as="targetPoint" />
          </mxGeometry>
        </mxCell>
        <mxCell id="qfJxJ11XqiEPvi0X_yUr-39" value="" style="rounded=0;whiteSpace=wrap;html=1;rotation=90;" parent="Xh-Kn0di37GIqZYWOdox-1" vertex="1">
          <mxGeometry x="2920" y="820" width="80" height="40" as="geometry" />
        </mxCell>
        <mxCell id="qfJxJ11XqiEPvi0X_yUr-40" value="" style="endArrow=none;html=1;rounded=0;exitX=0;exitY=0.5;exitDx=0;exitDy=0;entryX=0.5;entryY=1;entryDx=0;entryDy=0;" parent="Xh-Kn0di37GIqZYWOdox-1" source="qfJxJ11XqiEPvi0X_yUr-39" target="Xh-Kn0di37GIqZYWOdox-57" edge="1">
          <mxGeometry width="50" height="50" relative="1" as="geometry">
            <mxPoint x="2853" y="670" as="sourcePoint" />
            <mxPoint x="2903" y="620" as="targetPoint" />
          </mxGeometry>
        </mxCell>
        <mxCell id="qfJxJ11XqiEPvi0X_yUr-41" value="" style="rounded=0;whiteSpace=wrap;html=1;rotation=90;" parent="Xh-Kn0di37GIqZYWOdox-1" vertex="1">
          <mxGeometry x="3080" y="820" width="80" height="40" as="geometry" />
        </mxCell>
        <mxCell id="qfJxJ11XqiEPvi0X_yUr-42" value="" style="rounded=0;whiteSpace=wrap;html=1;rotation=90;" parent="Xh-Kn0di37GIqZYWOdox-1" vertex="1">
          <mxGeometry x="3243" y="820" width="80" height="40" as="geometry" />
        </mxCell>
        <mxCell id="qfJxJ11XqiEPvi0X_yUr-43" value="" style="rounded=0;whiteSpace=wrap;html=1;rotation=90;" parent="Xh-Kn0di37GIqZYWOdox-1" vertex="1">
          <mxGeometry x="3400" y="820" width="80" height="40" as="geometry" />
        </mxCell>
        <mxCell id="qfJxJ11XqiEPvi0X_yUr-44" value="" style="endArrow=none;html=1;rounded=0;exitX=0;exitY=0.5;exitDx=0;exitDy=0;entryX=0.5;entryY=1;entryDx=0;entryDy=0;" parent="Xh-Kn0di37GIqZYWOdox-1" source="qfJxJ11XqiEPvi0X_yUr-41" target="Xh-Kn0di37GIqZYWOdox-56" edge="1">
          <mxGeometry width="50" height="50" relative="1" as="geometry">
            <mxPoint x="2853" y="670" as="sourcePoint" />
            <mxPoint x="2903" y="620" as="targetPoint" />
          </mxGeometry>
        </mxCell>
        <mxCell id="qfJxJ11XqiEPvi0X_yUr-45" value="" style="endArrow=none;html=1;rounded=0;exitX=0;exitY=0.5;exitDx=0;exitDy=0;entryX=0.5;entryY=1;entryDx=0;entryDy=0;" parent="Xh-Kn0di37GIqZYWOdox-1" source="qfJxJ11XqiEPvi0X_yUr-42" target="Xh-Kn0di37GIqZYWOdox-58" edge="1">
          <mxGeometry width="50" height="50" relative="1" as="geometry">
            <mxPoint x="2853" y="670" as="sourcePoint" />
            <mxPoint x="2903" y="620" as="targetPoint" />
          </mxGeometry>
        </mxCell>
        <mxCell id="qfJxJ11XqiEPvi0X_yUr-46" value="" style="endArrow=none;html=1;rounded=0;exitX=0;exitY=0.5;exitDx=0;exitDy=0;entryX=0.5;entryY=1;entryDx=0;entryDy=0;" parent="Xh-Kn0di37GIqZYWOdox-1" source="qfJxJ11XqiEPvi0X_yUr-43" target="Xh-Kn0di37GIqZYWOdox-59" edge="1">
          <mxGeometry width="50" height="50" relative="1" as="geometry">
            <mxPoint x="2853" y="670" as="sourcePoint" />
            <mxPoint x="2903" y="620" as="targetPoint" />
          </mxGeometry>
        </mxCell>
        <mxCell id="qfJxJ11XqiEPvi0X_yUr-47" value="" style="rounded=0;whiteSpace=wrap;html=1;rotation=90;" parent="Xh-Kn0di37GIqZYWOdox-1" vertex="1">
          <mxGeometry x="4100" y="937" width="80" height="40" as="geometry" />
        </mxCell>
        <mxCell id="qfJxJ11XqiEPvi0X_yUr-48" value="" style="endArrow=none;html=1;rounded=0;exitX=0;exitY=0.5;exitDx=0;exitDy=0;entryX=0.5;entryY=1;entryDx=0;entryDy=0;" parent="Xh-Kn0di37GIqZYWOdox-1" source="qfJxJ11XqiEPvi0X_yUr-47" target="Xh-Kn0di37GIqZYWOdox-85" edge="1">
          <mxGeometry width="50" height="50" relative="1" as="geometry">
            <mxPoint x="4300" y="787" as="sourcePoint" />
            <mxPoint x="4350" y="737" as="targetPoint" />
          </mxGeometry>
        </mxCell>
        <mxCell id="qfJxJ11XqiEPvi0X_yUr-49" value="" style="endArrow=none;html=1;rounded=0;entryX=0.5;entryY=1;entryDx=0;entryDy=0;exitX=0;exitY=0.5;exitDx=0;exitDy=0;" parent="Xh-Kn0di37GIqZYWOdox-1" source="qfJxJ11XqiEPvi0X_yUr-50" target="Xh-Kn0di37GIqZYWOdox-84" edge="1">
          <mxGeometry width="50" height="50" relative="1" as="geometry">
            <mxPoint x="4320" y="917" as="sourcePoint" />
            <mxPoint x="4350" y="737" as="targetPoint" />
          </mxGeometry>
        </mxCell>
        <mxCell id="qfJxJ11XqiEPvi0X_yUr-50" value="" style="rounded=0;whiteSpace=wrap;html=1;rotation=90;" parent="Xh-Kn0di37GIqZYWOdox-1" vertex="1">
          <mxGeometry x="4220.5" y="937" width="80" height="40" as="geometry" />
        </mxCell>
        <mxCell id="qfJxJ11XqiEPvi0X_yUr-51" value="" style="rounded=0;whiteSpace=wrap;html=1;rotation=90;" parent="Xh-Kn0di37GIqZYWOdox-1" vertex="1">
          <mxGeometry x="4340" y="937" width="80" height="40" as="geometry" />
        </mxCell>
        <mxCell id="qfJxJ11XqiEPvi0X_yUr-52" value="" style="endArrow=none;html=1;rounded=0;exitX=0;exitY=0.5;exitDx=0;exitDy=0;entryX=0.5;entryY=1;entryDx=0;entryDy=0;" parent="Xh-Kn0di37GIqZYWOdox-1" source="qfJxJ11XqiEPvi0X_yUr-51" target="Xh-Kn0di37GIqZYWOdox-83" edge="1">
          <mxGeometry width="50" height="50" relative="1" as="geometry">
            <mxPoint x="4300" y="787" as="sourcePoint" />
            <mxPoint x="4350" y="737" as="targetPoint" />
          </mxGeometry>
        </mxCell>
        <mxCell id="qfJxJ11XqiEPvi0X_yUr-53" value="" style="rounded=0;whiteSpace=wrap;html=1;rotation=90;" parent="Xh-Kn0di37GIqZYWOdox-1" vertex="1">
          <mxGeometry x="4460.5" y="937" width="80" height="40" as="geometry" />
        </mxCell>
        <mxCell id="qfJxJ11XqiEPvi0X_yUr-54" value="" style="endArrow=none;html=1;rounded=0;exitX=0;exitY=0.5;exitDx=0;exitDy=0;entryX=0.5;entryY=1;entryDx=0;entryDy=0;" parent="Xh-Kn0di37GIqZYWOdox-1" source="qfJxJ11XqiEPvi0X_yUr-53" target="Xh-Kn0di37GIqZYWOdox-86" edge="1">
          <mxGeometry width="50" height="50" relative="1" as="geometry">
            <mxPoint x="4300" y="787" as="sourcePoint" />
            <mxPoint x="4350" y="737" as="targetPoint" />
          </mxGeometry>
        </mxCell>
        <mxCell id="qfJxJ11XqiEPvi0X_yUr-55" value="" style="rounded=0;whiteSpace=wrap;html=1;rotation=90;" parent="Xh-Kn0di37GIqZYWOdox-1" vertex="1">
          <mxGeometry x="4580" y="937" width="80" height="40" as="geometry" />
        </mxCell>
        <mxCell id="qfJxJ11XqiEPvi0X_yUr-56" value="" style="endArrow=none;html=1;rounded=0;exitX=0;exitY=0.5;exitDx=0;exitDy=0;entryX=0.5;entryY=1;entryDx=0;entryDy=0;" parent="Xh-Kn0di37GIqZYWOdox-1" source="qfJxJ11XqiEPvi0X_yUr-55" target="Xh-Kn0di37GIqZYWOdox-87" edge="1">
          <mxGeometry width="50" height="50" relative="1" as="geometry">
            <mxPoint x="4300" y="787" as="sourcePoint" />
            <mxPoint x="4350" y="737" as="targetPoint" />
          </mxGeometry>
        </mxCell>
        <mxCell id="qfJxJ11XqiEPvi0X_yUr-57" value="" style="rounded=0;whiteSpace=wrap;html=1;rotation=90;" parent="Xh-Kn0di37GIqZYWOdox-1" vertex="1">
          <mxGeometry x="3960.5" y="820" width="80" height="40" as="geometry" />
        </mxCell>
        <mxCell id="qfJxJ11XqiEPvi0X_yUr-58" value="" style="endArrow=none;html=1;rounded=0;exitX=0;exitY=0.5;exitDx=0;exitDy=0;entryX=0.5;entryY=1;entryDx=0;entryDy=0;" parent="Xh-Kn0di37GIqZYWOdox-1" source="qfJxJ11XqiEPvi0X_yUr-57" target="Xh-Kn0di37GIqZYWOdox-52" edge="1">
          <mxGeometry width="50" height="50" relative="1" as="geometry">
            <mxPoint x="4600" y="670" as="sourcePoint" />
            <mxPoint x="4650" y="620" as="targetPoint" />
          </mxGeometry>
        </mxCell>
        <mxCell id="qfJxJ11XqiEPvi0X_yUr-59" value="" style="rounded=0;whiteSpace=wrap;html=1;rotation=90;" parent="Xh-Kn0di37GIqZYWOdox-1" vertex="1">
          <mxGeometry x="4719.5" y="820" width="80" height="40" as="geometry" />
        </mxCell>
        <mxCell id="qfJxJ11XqiEPvi0X_yUr-60" value="" style="endArrow=none;html=1;rounded=0;exitX=0;exitY=0.5;exitDx=0;exitDy=0;entryX=0.5;entryY=1;entryDx=0;entryDy=0;" parent="Xh-Kn0di37GIqZYWOdox-1" source="qfJxJ11XqiEPvi0X_yUr-59" target="Xh-Kn0di37GIqZYWOdox-53" edge="1">
          <mxGeometry width="50" height="50" relative="1" as="geometry">
            <mxPoint x="4600" y="670" as="sourcePoint" />
            <mxPoint x="4650" y="620" as="targetPoint" />
          </mxGeometry>
        </mxCell>
        <mxCell id="Xh-Kn0di37GIqZYWOdox-59" value="típus" style="ellipse;whiteSpace=wrap;html=1;align=center;" parent="Xh-Kn0di37GIqZYWOdox-1" vertex="1">
          <mxGeometry x="3380" y="720" width="120" height="40" as="geometry" />
        </mxCell>
        <mxCell id="CxQnH0kl-8VCiQJpPVmA-2" value="" style="endArrow=none;html=1;rounded=0;entryX=0.5;entryY=1;entryDx=0;entryDy=0;exitX=0.5;exitY=0;exitDx=0;exitDy=0;" parent="Xh-Kn0di37GIqZYWOdox-1" source="dBNDkM5XXraihJlwGYf0-0" target="PA8aLBM9HCZWolVJA6t9-0" edge="1">
          <mxGeometry width="50" height="50" relative="1" as="geometry">
            <mxPoint x="1530" y="700" as="sourcePoint" />
            <mxPoint x="1500" y="670" as="targetPoint" />
          </mxGeometry>
        </mxCell>
        <mxCell id="CxQnH0kl-8VCiQJpPVmA-4" value="" style="rounded=0;whiteSpace=wrap;html=1;rotation=90;" parent="Xh-Kn0di37GIqZYWOdox-1" vertex="1">
          <mxGeometry x="1440" y="820" width="80" height="40" as="geometry" />
        </mxCell>
        <mxCell id="CxQnH0kl-8VCiQJpPVmA-5" value="" style="endArrow=none;html=1;rounded=0;exitX=0;exitY=0.5;exitDx=0;exitDy=0;entryX=0.5;entryY=1;entryDx=0;entryDy=0;" parent="Xh-Kn0di37GIqZYWOdox-1" source="CxQnH0kl-8VCiQJpPVmA-4" target="dBNDkM5XXraihJlwGYf0-0" edge="1">
          <mxGeometry width="50" height="50" relative="1" as="geometry">
            <mxPoint x="1450" y="600" as="sourcePoint" />
            <mxPoint x="1520" y="760" as="targetPoint" />
          </mxGeometry>
        </mxCell>
        <mxCell id="CxQnH0kl-8VCiQJpPVmA-6" value="" style="endArrow=none;dashed=1;html=1;dashPattern=1 3;strokeWidth=2;rounded=0;" parent="Xh-Kn0di37GIqZYWOdox-1" edge="1">
          <mxGeometry width="50" height="50" relative="1" as="geometry">
            <mxPoint x="3570" y="750" as="sourcePoint" />
            <mxPoint x="3630" y="750" as="targetPoint" />
          </mxGeometry>
        </mxCell>
        <mxCell id="CxQnH0kl-8VCiQJpPVmA-9" value="" style="endArrow=none;dashed=1;html=1;dashPattern=1 3;strokeWidth=2;rounded=0;" parent="Xh-Kn0di37GIqZYWOdox-1" edge="1">
          <mxGeometry width="50" height="50" relative="1" as="geometry">
            <mxPoint x="4890" y="750" as="sourcePoint" />
            <mxPoint x="4950" y="750" as="targetPoint" />
          </mxGeometry>
        </mxCell>
        <mxCell id="89SeMrakc41cRuiCT44--1" value="telefonszám" style="ellipse;whiteSpace=wrap;html=1;align=center;" parent="Xh-Kn0di37GIqZYWOdox-1" vertex="1">
          <mxGeometry x="4550" y="2220" width="121" height="40" as="geometry" />
        </mxCell>
        <mxCell id="89SeMrakc41cRuiCT44--2" value="cím" style="ellipse;whiteSpace=wrap;html=1;align=center;" parent="Xh-Kn0di37GIqZYWOdox-1" vertex="1">
          <mxGeometry x="4319.5" y="720" width="121" height="40" as="geometry" />
        </mxCell>
        <mxCell id="89SeMrakc41cRuiCT44--3" value="" style="endArrow=none;html=1;rounded=0;exitX=0.5;exitY=0;exitDx=0;exitDy=0;entryX=0.5;entryY=1;entryDx=0;entryDy=0;" parent="Xh-Kn0di37GIqZYWOdox-1" source="Xh-Kn0di37GIqZYWOdox-85" target="89SeMrakc41cRuiCT44--2" edge="1">
          <mxGeometry width="50" height="50" relative="1" as="geometry">
            <mxPoint x="4340" y="940" as="sourcePoint" />
            <mxPoint x="4390" y="890" as="targetPoint" />
          </mxGeometry>
        </mxCell>
        <mxCell id="89SeMrakc41cRuiCT44--4" value="" style="endArrow=none;html=1;rounded=0;exitX=0.5;exitY=1;exitDx=0;exitDy=0;entryX=0.5;entryY=0;entryDx=0;entryDy=0;" parent="Xh-Kn0di37GIqZYWOdox-1" source="89SeMrakc41cRuiCT44--2" target="Xh-Kn0di37GIqZYWOdox-84" edge="1">
          <mxGeometry width="50" height="50" relative="1" as="geometry">
            <mxPoint x="4340" y="940" as="sourcePoint" />
            <mxPoint x="4390" y="890" as="targetPoint" />
          </mxGeometry>
        </mxCell>
        <mxCell id="89SeMrakc41cRuiCT44--5" value="" style="endArrow=none;html=1;rounded=0;exitX=0.5;exitY=0;exitDx=0;exitDy=0;entryX=0.5;entryY=1;entryDx=0;entryDy=0;" parent="Xh-Kn0di37GIqZYWOdox-1" source="Xh-Kn0di37GIqZYWOdox-83" target="89SeMrakc41cRuiCT44--2" edge="1">
          <mxGeometry width="50" height="50" relative="1" as="geometry">
            <mxPoint x="4340" y="940" as="sourcePoint" />
            <mxPoint x="4390" y="890" as="targetPoint" />
          </mxGeometry>
        </mxCell>
        <mxCell id="89SeMrakc41cRuiCT44--6" value="" style="endArrow=none;html=1;rounded=0;exitX=0.5;exitY=0;exitDx=0;exitDy=0;entryX=0.5;entryY=1;entryDx=0;entryDy=0;" parent="Xh-Kn0di37GIqZYWOdox-1" source="Xh-Kn0di37GIqZYWOdox-86" target="89SeMrakc41cRuiCT44--2" edge="1">
          <mxGeometry width="50" height="50" relative="1" as="geometry">
            <mxPoint x="4340" y="940" as="sourcePoint" />
            <mxPoint x="4390" y="890" as="targetPoint" />
          </mxGeometry>
        </mxCell>
        <mxCell id="89SeMrakc41cRuiCT44--7" value="" style="endArrow=none;html=1;rounded=0;exitX=0.5;exitY=0;exitDx=0;exitDy=0;entryX=0.5;entryY=1;entryDx=0;entryDy=0;" parent="Xh-Kn0di37GIqZYWOdox-1" source="Xh-Kn0di37GIqZYWOdox-87" target="89SeMrakc41cRuiCT44--2" edge="1">
          <mxGeometry width="50" height="50" relative="1" as="geometry">
            <mxPoint x="4340" y="940" as="sourcePoint" />
            <mxPoint x="4390" y="890" as="targetPoint" />
          </mxGeometry>
        </mxCell>
        <mxCell id="89SeMrakc41cRuiCT44--8" value="" style="endArrow=none;html=1;rounded=0;exitX=0.5;exitY=1;exitDx=0;exitDy=0;entryX=0.5;entryY=0;entryDx=0;entryDy=0;" parent="Xh-Kn0di37GIqZYWOdox-1" source="aaN7hWeITXNE_rKxyTwj-14" target="89SeMrakc41cRuiCT44--2" edge="1">
          <mxGeometry width="50" height="50" relative="1" as="geometry">
            <mxPoint x="4340" y="940" as="sourcePoint" />
            <mxPoint x="4390" y="890" as="targetPoint" />
          </mxGeometry>
        </mxCell>
        <mxCell id="dBNDkM5XXraihJlwGYf0-0" value="nk_alapanyag" style="ellipse;shape=doubleEllipse;margin=3;whiteSpace=wrap;html=1;align=center;" vertex="1" parent="Xh-Kn0di37GIqZYWOdox-1">
          <mxGeometry x="1459.25" y="720" width="121.5" height="40" as="geometry" />
        </mxCell>
        <mxCell id="dBNDkM5XXraihJlwGYf0-1" value="összetevők" style="ellipse;shape=doubleEllipse;margin=3;whiteSpace=wrap;html=1;align=center;" vertex="1" parent="Xh-Kn0di37GIqZYWOdox-1">
          <mxGeometry x="2500" y="720" width="120" height="40" as="geometry" />
        </mxCell>
        <mxCell id="dBNDkM5XXraihJlwGYf0-2" value="" style="rounded=0;whiteSpace=wrap;html=1;rotation=90;" vertex="1" parent="Xh-Kn0di37GIqZYWOdox-1">
          <mxGeometry x="2561" y="820" width="80" height="40" as="geometry" />
        </mxCell>
        <mxCell id="dBNDkM5XXraihJlwGYf0-3" value="" style="endArrow=none;html=1;rounded=0;exitX=0;exitY=0.5;exitDx=0;exitDy=0;entryX=0.5;entryY=1;entryDx=0;entryDy=0;" edge="1" parent="Xh-Kn0di37GIqZYWOdox-1" source="dBNDkM5XXraihJlwGYf0-2" target="dBNDkM5XXraihJlwGYf0-1">
          <mxGeometry width="50" height="50" relative="1" as="geometry">
            <mxPoint x="2260" y="820" as="sourcePoint" />
            <mxPoint x="2310" y="770" as="targetPoint" />
          </mxGeometry>
        </mxCell>
        <mxCell id="dBNDkM5XXraihJlwGYf0-4" value="" style="rounded=0;whiteSpace=wrap;html=1;rotation=90;" vertex="1" parent="Xh-Kn0di37GIqZYWOdox-1">
          <mxGeometry x="1520" y="820" width="80" height="40" as="geometry" />
        </mxCell>
        <mxCell id="dBNDkM5XXraihJlwGYf0-5" value="" style="endArrow=none;html=1;rounded=0;exitX=0;exitY=0.5;exitDx=0;exitDy=0;entryX=0.5;entryY=1;entryDx=0;entryDy=0;" edge="1" parent="Xh-Kn0di37GIqZYWOdox-1" source="dBNDkM5XXraihJlwGYf0-4" target="dBNDkM5XXraihJlwGYf0-0">
          <mxGeometry width="50" height="50" relative="1" as="geometry">
            <mxPoint x="1450" y="820" as="sourcePoint" />
            <mxPoint x="1500" y="770" as="targetPoint" />
          </mxGeometry>
        </mxCell>
      </root>
    </mxGraphModel>
  </diagram>
</mxfile>
